<svg xmlns="http://www.w3.org/2000/svg" viewBox="0 0 1600 1000" preserveAspectRatio="xMidYMid slice" role="img" aria-label="Designed signal-stack placeholder asset" data-placeholder-template="signal-stack"><defs><filter id="soft-shadow" x="-10%" y="-10%" width="120%" height="120%"><feDropShadow dx="0" dy="18" stdDeviation="18" flood-opacity=".18"/></filter></defs><rect width="1600" height="1000" fill="#14342f"/><path d="M0 0H1600V1000H0Z" fill="#edf4f2" opacity=".06"/><path d="M-80 230C220 98 388 342 640 190C874 49 1018 134 1298 76C1432 48 1532 62 1680 114V0H-80Z" fill="#2f8f83" opacity=".26"/><g transform="translate(179 142)"><rect width="1090" height="154" fill="#edf4f2" opacity=".93"/><rect y="214" width="1260" height="154" fill="#2f8f83" opacity=".86"/><rect y="428" width="960" height="154" fill="#f0b45a" opacity=".92"/><rect y="642" width="1188" height="154" fill="#d84d35" opacity=".88"/></g><g fill="none" stroke="#edf4f2" stroke-opacity=".38" stroke-width="5"><path d="M200 206H1322M200 420H1478M200 634H1216M200 848H1410"/><path d="M300 120V900M590 120V900M880 120V900M1170 120V900M1460 120V900"/></g><circle cx="1310" cy="290" r="102" fill="#edf4f2" opacity=".94"/><circle cx="1310" cy="290" r="48" fill="#14342f" opacity=".9"/><circle cx="1450" cy="624" r="58" fill="#f0b45a" opacity=".95"/><path d="M84 80H1516V920H84Z" fill="none" stroke="#edf4f2" stroke-opacity=".22" stroke-width="6"/><text x="72" y="118" font-family="Georgia, 'Times New Roman', serif" font-size="40" font-weight="700" fill="#14342f" fill-opacity=".82">Proferlo Furniture</text><text x="72" y="164" font-family="Verdana, sans-serif" font-size="18" fill="#14342f" fill-opacity=".56">Customer-safe generated vector placeholder for media-016.</text><g transform="translate(72 792)"><rect width="518" height="108" rx="0" fill="#14342f" fill-opacity=".94"/><path d="M28 22H490M28 86H490" stroke="#edf4f2" stroke-opacity=".24" stroke-width="2"/><text x="34" y="61" font-family="Georgia, 'Times New Roman', serif" font-size="36" font-weight="700" fill="#edf4f2">&lt;placeholder&gt; asset</text><text x="34" y="88" font-family="Verdana, sans-serif" font-size="14" letter-spacing="2" fill="#2f8f83">PROFERLO FURNITURE / MEDIA-016</text></g><rect x="56" y="56" width="1488" height="888" fill="none" stroke="#edf4f2" stroke-opacity=".28" stroke-width="2"/></svg>
