<svg xmlns="http://www.w3.org/2000/svg" viewBox="0 0 1600 1000" preserveAspectRatio="xMidYMid slice" role="img" aria-label="Designed atelier-window placeholder asset" data-placeholder-template="atelier-window"><defs><filter id="soft-shadow" x="-10%" y="-10%" width="120%" height="120%"><feDropShadow dx="0" dy="18" stdDeviation="18" flood-opacity=".18"/></filter></defs><rect width="1600" height="1000" fill="#f6f1e5"/><path d="M0 760C230 690 410 812 650 724C915 626 1100 680 1600 540V1000H0Z" fill="#0f2f2d" opacity=".08"/><rect x="154" y="112" width="520" height="660" fill="#0f2f2d" opacity=".95"/><rect x="196" y="154" width="190" height="244" fill="#f6f1e5" opacity=".92"/><rect x="428" y="154" width="190" height="244" fill="#f6f1e5" opacity=".88"/><rect x="196" y="440" width="422" height="260" fill="#f6f1e5" opacity=".86"/><path d="M742 250C858 126 1055 112 1172 226C1288 340 1266 520 1128 610C990 700 810 646 742 512C692 412 681 314 742 250Z" fill="#d66f3f" opacity=".92"/><path d="M886 226C982 214 1070 260 1115 344C1158 425 1136 522 1060 566C984 610 880 586 828 512C774 434 786 312 886 226Z" fill="#f6f1e5" opacity=".32"/><path d="M998 190L1314 778H830Z" fill="#163f78" opacity=".24"/><circle cx="1218" cy="272" r="96" fill="#e6b84f" opacity=".94"/><path d="M1138 276H1298M1218 196V356" stroke="#f6f1e5" stroke-opacity=".48" stroke-width="8"/><path d="M76 82H1524V922H76Z" fill="none" stroke="#0f2f2d" stroke-opacity=".16" stroke-width="6"/><text x="72" y="118" font-family="Georgia, 'Times New Roman', serif" font-size="40" font-weight="700" fill="#0f2f2d" fill-opacity=".82">Proferlo Furniture</text><text x="72" y="164" font-family="Verdana, sans-serif" font-size="18" fill="#0f2f2d" fill-opacity=".56">Customer-safe generated vector placeholder for media-027.</text><g transform="translate(72 792)"><rect width="518" height="108" rx="0" fill="#0f2f2d" fill-opacity=".94"/><path d="M28 22H490M28 86H490" stroke="#f6f1e5" stroke-opacity=".24" stroke-width="2"/><text x="34" y="61" font-family="Georgia, 'Times New Roman', serif" font-size="36" font-weight="700" fill="#f6f1e5">&lt;placeholder&gt; asset</text><text x="34" y="88" font-family="Verdana, sans-serif" font-size="14" letter-spacing="2" fill="#d66f3f">PROFERLO FURNITURE / MEDIA-027</text></g><rect x="56" y="56" width="1488" height="888" fill="none" stroke="#f6f1e5" stroke-opacity=".28" stroke-width="2"/></svg>
