<svg xmlns="http://www.w3.org/2000/svg" viewBox="0 0 1600 1000" preserveAspectRatio="xMidYMid slice" role="img" aria-label="Designed editorial-still-life placeholder asset" data-placeholder-template="editorial-still-life"><defs><filter id="soft-shadow" x="-10%" y="-10%" width="120%" height="120%"><feDropShadow dx="0" dy="18" stdDeviation="18" flood-opacity=".18"/></filter></defs><rect width="1600" height="1000" fill="#eef2ea"/><rect x="0" y="610" width="1600" height="390" fill="#202a1d" opacity=".09"/><rect x="178" y="176" width="414" height="584" fill="#bf5137" opacity=".92"/><rect x="222" y="220" width="326" height="496" fill="#eef2ea" opacity=".86"/><path d="M756 668C740 468 830 292 980 232C1162 160 1370 278 1414 474C1460 682 1284 832 1088 818C918 806 770 836 756 668Z" fill="#6d8b47" opacity=".91"/><path d="M926 338C1010 300 1126 316 1194 386C1272 468 1270 594 1190 662C1110 730 978 710 908 626C826 526 832 382 926 338Z" fill="#eef2ea" opacity=".34"/><circle cx="730" cy="330" r="116" fill="#d7a63d" opacity=".95"/><path d="M682 330H778M730 282V378" stroke="#202a1d" stroke-opacity=".38" stroke-width="10"/><rect x="1040" y="152" width="294" height="104" fill="#202a1d" opacity=".88"/><rect x="1090" y="704" width="382" height="86" fill="#d7a63d" opacity=".85"/><path d="M82 80H1518V920H82Z" fill="none" stroke="#202a1d" stroke-opacity=".17" stroke-width="6"/><text x="72" y="118" font-family="Georgia, 'Times New Roman', serif" font-size="40" font-weight="700" fill="#202a1d" fill-opacity=".82">Proferlo Furniture</text><text x="72" y="164" font-family="Verdana, sans-serif" font-size="18" fill="#202a1d" fill-opacity=".56">Customer-safe generated vector placeholder for media-032.</text><g transform="translate(72 792)"><rect width="518" height="108" rx="0" fill="#202a1d" fill-opacity=".94"/><path d="M28 22H490M28 86H490" stroke="#eef2ea" stroke-opacity=".24" stroke-width="2"/><text x="34" y="61" font-family="Georgia, 'Times New Roman', serif" font-size="36" font-weight="700" fill="#eef2ea">&lt;placeholder&gt; asset</text><text x="34" y="88" font-family="Verdana, sans-serif" font-size="14" letter-spacing="2" fill="#6d8b47">PROFERLO FURNITURE / MEDIA-032</text></g><rect x="56" y="56" width="1488" height="888" fill="none" stroke="#eef2ea" stroke-opacity=".28" stroke-width="2"/></svg>
