<svg xmlns="http://www.w3.org/2000/svg" viewBox="0 0 1600 1000" preserveAspectRatio="xMidYMid slice" role="img" aria-label="Designed kinetic-poster placeholder asset" data-placeholder-template="kinetic-poster"><defs><filter id="soft-shadow" x="-10%" y="-10%" width="120%" height="120%"><feDropShadow dx="0" dy="18" stdDeviation="18" flood-opacity=".18"/></filter></defs><rect width="1600" height="1000" fill="#f1f3ef"/><g transform="rotate(6 800 500)"><path d="M-120 710L620 116L812 328L72 920Z" fill="#3a9aa6" opacity=".82"/><path d="M444 934L1322 86L1530 286L650 1138Z" fill="#c84f3a" opacity=".86"/><path d="M196 390L1384 246L1410 474L222 618Z" fill="#14212e" opacity=".92"/><path d="M82 690L1162 554L1182 690L102 826Z" fill="#efc25f" opacity=".9"/></g><circle cx="1220" cy="716" r="118" fill="#f1f3ef" opacity=".9"/><circle cx="1220" cy="716" r="64" fill="#14212e" opacity=".86"/><path d="M96 84H1504V916H96Z" fill="none" stroke="#14212e" stroke-opacity=".15" stroke-width="6"/><text x="72" y="118" font-family="Georgia, 'Times New Roman', serif" font-size="40" font-weight="700" fill="#14212e" fill-opacity=".82">Proferlo Furniture</text><text x="72" y="164" font-family="Verdana, sans-serif" font-size="18" fill="#14212e" fill-opacity=".56">Customer-safe generated vector placeholder for media-057.</text><g transform="translate(72 792)"><rect width="518" height="108" rx="0" fill="#14212e" fill-opacity=".94"/><path d="M28 22H490M28 86H490" stroke="#f1f3ef" stroke-opacity=".24" stroke-width="2"/><text x="34" y="61" font-family="Georgia, 'Times New Roman', serif" font-size="36" font-weight="700" fill="#f1f3ef">&lt;placeholder&gt; asset</text><text x="34" y="88" font-family="Verdana, sans-serif" font-size="14" letter-spacing="2" fill="#3a9aa6">PROFERLO FURNITURE / MEDIA-057</text></g><rect x="56" y="56" width="1488" height="888" fill="none" stroke="#f1f3ef" stroke-opacity=".28" stroke-width="2"/></svg>
