<svg xmlns="http://www.w3.org/2000/svg" viewBox="0 0 1600 1000" preserveAspectRatio="xMidYMid slice" role="img" aria-label="Designed field-map placeholder asset" data-placeholder-template="field-map"><defs><filter id="soft-shadow" x="-10%" y="-10%" width="120%" height="120%"><feDropShadow dx="0" dy="18" stdDeviation="18" flood-opacity=".18"/></filter></defs><rect width="1600" height="1000" fill="#f4efe7"/><path d="M0 714C166 602 256 678 410 590C556 506 608 344 778 320C950 296 1016 458 1188 394C1334 340 1428 206 1600 244V1000H0Z" fill="#3b75b8" opacity=".18"/><path d="M102 690C268 572 376 656 538 534C708 406 706 220 904 178C1080 140 1198 308 1390 238" fill="none" stroke="#1d2e46" stroke-opacity=".76" stroke-width="18" stroke-linecap="round"/><path d="M128 746C346 640 440 736 596 604C774 452 806 282 1000 260C1178 240 1292 384 1490 318" fill="none" stroke="#d89c45" stroke-opacity=".82" stroke-width="10" stroke-linecap="round"/><g fill="#7a4e2b" opacity=".92"><circle cx="248" cy="640" r="32"/><circle cx="520" cy="574" r="24"/><circle cx="822" cy="302" r="30"/><circle cx="1138" cy="306" r="26"/><circle cx="1394" cy="252" r="34"/></g><g fill="#1d2e46" opacity=".14"><rect x="118" y="138" width="314" height="176"/><rect x="502" y="114" width="196" height="118"/><rect x="1182" y="602" width="292" height="198"/><rect x="862" y="684" width="182" height="124"/></g><path d="M76 82H1524V922H76Z" fill="none" stroke="#1d2e46" stroke-opacity=".16" stroke-width="6"/><text x="72" y="118" font-family="Georgia, 'Times New Roman', serif" font-size="40" font-weight="700" fill="#1d2e46" fill-opacity=".82">Proferlo Furniture</text><text x="72" y="164" font-family="Verdana, sans-serif" font-size="18" fill="#1d2e46" fill-opacity=".56">Customer-safe generated vector placeholder for media-067.</text><g transform="translate(72 792)"><rect width="518" height="108" rx="0" fill="#1d2e46" fill-opacity=".94"/><path d="M28 22H490M28 86H490" stroke="#f4efe7" stroke-opacity=".24" stroke-width="2"/><text x="34" y="61" font-family="Georgia, 'Times New Roman', serif" font-size="36" font-weight="700" fill="#f4efe7">&lt;placeholder&gt; asset</text><text x="34" y="88" font-family="Verdana, sans-serif" font-size="14" letter-spacing="2" fill="#3b75b8">PROFERLO FURNITURE / MEDIA-067</text></g><rect x="56" y="56" width="1488" height="888" fill="none" stroke="#f4efe7" stroke-opacity=".28" stroke-width="2"/></svg>
